<svg width="131" height="100" viewBox="0 0 131 100" fill="none" xmlns="http://www.w3.org/2000/svg">
<g filter="url(#filter0_d)">
<rect x="15" y="16" width="100" height="68" rx="10" fill="url(#paint0_linear)" shape-rendering="crispEdges"/>
<g filter="url(#filter1_d)">
<rect x="115.56" y="83.9761" width="100.072" height="68" rx="10" transform="rotate(179.587 115.56 83.9761)" fill="url(#paint1_linear)" shape-rendering="crispEdges"/>
</g>
<path d="M56.6144 76.1362C51.4833 80.6687 43.7159 80.1256 39.2655 74.9232L19.0291 51.2674C16.8038 48.6662 17.0797 44.7203 19.6453 42.454V42.454C22.2108 40.1877 26.0945 40.4593 28.3198 43.0605L56.6144 76.1362V76.1362Z" fill="url(#paint2_linear)"/>
<g filter="url(#filter2_d)">
<path d="M18.776 50.931C16.7367 48.1673 17.2982 44.2393 20.0302 42.1577L44.4665 23.5383C49.9305 19.375 57.6664 20.4809 61.7451 26.0083V26.0083L27.4153 52.166C24.6833 54.2476 20.8154 53.6947 18.776 50.931V50.931Z" fill="url(#paint3_linear)"/>
</g>
<path d="M62.3013 81.4053C58.8553 78.3651 58.4817 73.0681 61.4669 69.5743L86.0113 40.8474V40.8474C89.4573 43.8877 89.8309 49.1846 86.8457 52.6785L62.3013 81.4053V81.4053Z" fill="url(#paint4_linear)"/>
<g filter="url(#filter3_d)">
<path d="M68.5406 25.9196C72.6828 20.4412 80.4293 19.4264 85.8429 23.653L110.053 42.5549C112.76 44.6682 113.275 48.6019 111.204 51.3412V51.3412C109.133 54.0804 105.259 54.5878 102.553 52.4745L68.5406 25.9196V25.9196Z" fill="url(#paint5_linear)"/>
</g>
<path d="M110.207 43.2818C112.79 45.5726 113.06 49.5531 110.811 52.1723L90.763 75.5149C86.2639 80.7534 78.4286 81.2858 73.2623 76.704V76.704L101.456 43.8763C103.706 41.2571 107.623 40.9909 110.207 43.2818V43.2818Z" fill="url(#paint6_linear)"/>
<g filter="url(#filter4_d)">
<path d="M59.368 49.544L57.616 44.36H52.864L51.016 49.544H52.816V50H49.144V49.544H50.272L56.392 33.056H58.36L64.408 49.544H65.512V50H57.664V49.544H59.368ZM55.336 37.544L53.08 43.832H57.424L55.336 37.544Z" fill="url(#paint7_linear)"/>
</g>
<g filter="url(#filter5_d)">
<path d="M61.6 44.416C59.12 44.416 57.88 46.808 57.88 51.592V53.488C57.88 55.76 58.208 57.544 58.864 58.84C59.52 60.12 60.488 60.76 61.768 60.76C63.528 60.76 65.144 59.048 66.616 55.624H67.048L66.88 60.976H66.616C66.52 60.8 66.432 60.68 66.352 60.616C66.272 60.536 66.152 60.496 65.992 60.496C65.848 60.496 65.272 60.624 64.264 60.88C63.256 61.12 62.232 61.24 61.192 61.24C58.584 61.24 56.56 60.536 55.12 59.128C53.696 57.72 52.984 55.608 52.984 52.792C52.984 49.96 53.728 47.776 55.216 46.24C56.72 44.704 58.736 43.936 61.264 43.936C62.24 43.936 63.192 44.064 64.12 44.32C65.064 44.56 65.616 44.68 65.776 44.68C65.936 44.68 66.056 44.648 66.136 44.584C66.216 44.504 66.304 44.376 66.4 44.2H66.664L66.856 49.408H66.424C65.704 47.792 64.96 46.56 64.192 45.712C63.44 44.848 62.576 44.416 61.6 44.416Z" fill="url(#paint8_linear)"/>
</g>
<path d="M72.1446 76.378L71.0952 75.9467L70.4562 76.7028L71.0214 77.707L71.2635 77.4206L71.3351 77.483L70.8413 78.0673L70.7697 78.0049L70.9214 77.8254L69.1563 74.593L69.4209 74.2799L72.8223 75.5761L72.9708 75.4004L73.0424 75.4629L71.987 76.7116L71.9154 76.6492L72.1446 76.378ZM69.7188 75.3758L70.4024 76.5961L70.9866 75.9049L69.7188 75.3758ZM70.515 72.6446L71.3057 71.7089L74.0633 74.1154L74.244 73.9016L74.3118 73.9608L73.3533 75.095L73.2855 75.0358L73.463 74.8257L70.7732 72.4784L70.5828 72.7037L70.515 72.6446ZM71.7943 71.1307L72.585 70.1951L75.3426 72.6016L75.5234 72.3878L75.5912 72.4469L74.6326 73.5811L74.5648 73.522L74.7423 73.3119L72.0526 70.9646L71.8621 71.1899L71.7943 71.1307ZM74.3333 69.7142C74.2193 69.8491 74.1036 69.9163 73.9863 69.9157C73.8712 69.9125 73.7634 69.8671 73.6629 69.7794C73.5625 69.6918 73.5054 69.5889 73.4917 69.4708C73.4802 69.3502 73.5283 69.2262 73.6358 69.0989C73.7434 68.9716 73.8553 68.9012 73.9715 68.8876C74.0852 68.8718 74.1973 68.9121 74.3079 69.0086C74.4158 69.1028 74.4756 69.2102 74.4871 69.3309C74.4986 69.4515 74.4474 69.5793 74.3333 69.7142ZM74.1059 70.5177L74.8966 69.5821L76.622 71.0878L76.8027 70.8739L76.8706 70.9331L75.912 72.0673L75.8442 72.0081L76.0217 71.7981L74.3641 70.3516L74.1737 70.5769L74.1059 70.5177ZM77.0838 68.8607L77.1774 68.7499L76.8873 68.4968C76.6488 68.2885 76.4774 68.1634 76.3734 68.1212C76.269 68.0744 76.1845 68.0891 76.12 68.1655C76.0813 68.2113 76.0583 68.2643 76.0512 68.3244C76.0436 68.3798 76.0612 68.4261 76.1039 68.4634C76.1441 68.4984 76.192 68.5269 76.2476 68.5489L76.3283 68.4535C76.3982 68.4791 76.4709 68.5248 76.5462 68.5906C76.6191 68.6541 76.6562 68.7418 76.6577 68.8537C76.6566 68.9634 76.6152 69.0666 76.5335 69.1633C76.3484 69.3823 76.1517 69.4008 75.9432 69.2189C75.6343 68.9493 75.7047 68.5485 76.1544 68.0164C76.4104 67.7134 76.6383 67.5496 76.8381 67.5249C77.0376 67.4954 77.2729 67.5991 77.5441 67.8358L78.3089 68.5031C78.4395 68.6171 78.536 68.6372 78.5984 68.5633C78.6715 68.4768 78.5852 68.313 78.3395 68.072L78.3916 68.018C78.604 68.221 78.7205 68.3956 78.741 68.5418C78.7614 68.688 78.7007 68.845 78.5587 69.0131C78.3005 69.3186 78.0591 69.4132 77.8345 69.2968C77.902 69.4132 77.9303 69.5242 77.9196 69.6298C77.9089 69.7355 77.8497 69.852 77.7421 69.9793C77.4237 70.356 77.1125 70.4118 76.8086 70.1467C76.6303 69.991 76.5688 69.8135 76.624 69.6139C76.6788 69.4096 76.8321 69.1585 77.0838 68.8607ZM77.4181 69.4178C77.5487 69.5317 77.6382 69.5988 77.6866 69.6189C77.7372 69.6365 77.7786 69.6263 77.8109 69.5881C77.8453 69.5473 77.8451 69.483 77.8103 69.3951C77.7752 69.3025 77.7011 69.2069 77.588 69.1082L77.2377 68.8025L77.2151 68.8292C77.0817 68.9871 77.1293 69.1657 77.3578 69.3652L77.4181 69.4178ZM77.4373 66.5758L78.2151 65.6555L78.5617 65.9579C78.4806 65.8164 78.4404 65.6729 78.441 65.5275C78.4417 65.3821 78.5141 65.2242 78.6583 65.0536C78.9918 64.659 79.3683 64.6447 79.7877 65.0107L80.9216 66.0002L81.1023 65.7864L81.1702 65.8456L80.2568 66.9263L80.189 66.8671L80.3213 66.7106L79.097 65.6421C78.9463 65.5106 78.841 65.4364 78.7811 65.4195C78.7187 65.4004 78.6649 65.4176 78.6197 65.4711C78.5508 65.5525 78.5422 65.6711 78.5939 65.8268C78.6478 65.98 78.75 66.1223 78.9007 66.2538L79.9405 67.1612L80.0793 66.997L80.1471 67.0561L79.2305 68.1407L79.1627 68.0815L79.3402 67.8715L77.6826 66.425L77.5051 66.635L77.4373 66.5758ZM80.6116 62.8817C80.5169 62.9938 80.5094 63.1266 80.5891 63.2801C80.6688 63.4337 80.848 63.6321 81.1268 63.8754L81.3227 64.0464C81.5713 64.2633 81.7733 64.391 81.9286 64.4292C82.0839 64.4674 82.2251 64.4114 82.352 64.2612C82.479 64.111 82.5299 63.9475 82.5047 63.7707C82.4796 63.594 82.4137 63.437 82.3071 63.2997L82.3728 63.2376C82.5479 63.4744 82.6283 63.6994 82.614 63.9125C82.6 64.1304 82.4952 64.3552 82.2994 64.5869C82.0498 64.8822 81.7804 65.0408 81.4913 65.0628C81.1997 65.0826 80.9032 64.9609 80.6018 64.6979C80.2979 64.4327 80.1397 64.1398 80.127 63.8191C80.1166 63.4959 80.2469 63.1739 80.518 62.8531C80.7095 62.6265 80.8997 62.4918 81.0888 62.4488C81.2753 62.4037 81.4338 62.4381 81.5644 62.5521C81.695 62.666 81.7657 62.7786 81.7765 62.8897C81.7894 62.9984 81.7529 63.1036 81.6668 63.2054C81.5829 63.3047 81.4888 63.3619 81.3844 63.377C81.28 63.392 81.1763 63.3547 81.0734 63.2648C81.0282 63.2253 80.9883 63.1795 80.9539 63.1273L81.0604 63.0013C81.0252 62.9397 80.9875 62.8913 80.9474 62.8562C80.8268 62.751 80.7149 62.7595 80.6116 62.8817ZM84.1758 62.3666C83.8982 62.695 83.6067 62.8696 83.301 62.8905C82.9951 62.9065 82.6939 62.7853 82.3975 62.5267C82.0987 62.2658 81.9476 61.9747 81.9443 61.6534C81.9431 61.3294 82.063 61.0249 82.304 60.7398C82.7924 60.1618 83.3133 60.1342 83.8665 60.6568L82.9564 61.7337L83.1033 61.8619C83.3494 62.0767 83.5622 62.2071 83.7416 62.253C83.9209 62.299 84.0773 62.243 84.2107 62.0852C84.4603 61.7898 84.4681 61.4605 84.2341 61.097L84.3035 61.0382C84.4435 61.2443 84.5099 61.4549 84.5028 61.6699C84.4978 61.8823 84.3888 62.1145 84.1758 62.3666ZM82.8843 61.6642L83.2167 61.2708L83.0321 61.1097C82.8287 60.9322 82.6798 60.8244 82.5854 60.7863C82.4907 60.7434 82.4122 60.7589 82.3498 60.8328C82.2895 60.9041 82.2845 60.9926 82.3348 61.0984C82.3847 61.1994 82.5063 61.3343 82.6997 61.5031L82.8843 61.6642ZM84.7053 56.3107C84.3718 56.7053 84.5805 57.2302 85.3315 57.8856L85.6291 58.1453C85.9857 58.4565 86.3098 58.6487 86.6015 58.7218C86.8906 58.7928 87.1212 58.7264 87.2934 58.5228C87.5301 58.2427 87.4786 57.7511 87.1391 57.0478L87.1972 56.9791L88.0147 57.7389L87.9792 57.7809C87.9387 57.7721 87.908 57.7697 87.8872 57.7736C87.8639 57.7754 87.8415 57.789 87.82 57.8145C87.8006 57.8374 87.7432 57.9466 87.6479 58.142C87.55 58.3353 87.4311 58.5147 87.2913 58.6802C86.9405 59.0951 86.5579 59.3208 86.1432 59.357C85.7307 59.3907 85.3034 59.2147 84.8614 58.829C84.4169 58.4411 84.1741 58.0235 84.1331 57.5763C84.0943 57.1266 84.2448 56.7006 84.5848 56.2984C84.716 56.1431 84.8641 56.0091 85.0291 55.8965C85.1937 55.7792 85.2868 55.7078 85.3083 55.6823C85.3298 55.6569 85.3409 55.6334 85.3417 55.6119C85.3399 55.5882 85.3316 55.5567 85.3169 55.5173L85.3524 55.4753L86.1957 56.1581L86.1376 56.2269C85.7871 56.1201 85.4937 56.0697 85.2573 56.0757C85.0206 56.0771 84.8366 56.1554 84.7053 56.3107ZM88.8051 55.2857L88.4848 55.0063C88.2412 54.7937 88.0523 54.6532 87.9182 54.5847C87.7836 54.5116 87.6755 54.5233 87.5937 54.6201C87.5464 54.6761 87.524 54.7362 87.5265 54.8003C87.5287 54.8597 87.5597 54.9288 87.6196 55.0077C87.7133 55.1292 87.8756 55.2908 88.1067 55.4924L88.4005 55.7488C88.6743 55.9877 88.8453 56.1237 88.9134 56.1566C88.9837 56.187 89.044 56.2086 89.0942 56.2215C89.1782 56.2461 89.2546 56.2177 89.3234 56.1362C89.4073 56.0369 89.4057 55.9227 89.3185 55.7935C89.2575 55.7004 89.0863 55.5312 88.8051 55.2857ZM89.3848 56.203C89.1158 56.5212 88.8321 56.6917 88.5337 56.7144C88.2352 56.737 87.9366 56.618 87.6377 56.3571C87.3364 56.0941 87.1785 55.8059 87.164 55.4925C87.1492 55.1744 87.2752 54.8575 87.542 54.5418C87.8088 54.2261 88.0832 54.0564 88.3652 54.0326C88.6446 54.0066 88.9375 54.1273 89.2439 54.3947C89.8843 54.9536 89.9313 55.5563 89.3848 56.203ZM90.3907 53.3321C90.6544 53.5622 90.842 53.7016 90.9536 53.7503C91.0626 53.7968 91.1484 53.7832 91.2108 53.7093C91.2753 53.633 91.2975 53.5395 91.2774 53.4291C91.2595 53.3161 91.1864 53.2037 91.0583 53.0919L90.2371 52.3752C90.1291 52.281 90.0191 52.2226 89.9072 52.2002C89.7953 52.1777 89.7038 52.2085 89.6328 52.2925C89.5618 52.3765 89.5687 52.482 89.6534 52.609C89.738 52.736 89.9185 52.92 90.1948 53.1611L90.3907 53.3321ZM91.6126 53.4894L91.3134 53.3013C91.4412 53.5632 91.3932 53.8265 91.1694 54.0913C90.9844 54.3102 90.7624 54.4129 90.5034 54.3992C90.2466 54.383 89.9637 54.2401 89.6548 53.9705C89.0294 53.4247 88.9297 52.8998 89.3558 52.3957C89.5451 52.1717 89.7314 52.0777 89.9147 52.1138L88.8034 51.144L88.6065 51.3769L88.5387 51.3178L89.3456 50.3631L92.1032 52.7696L92.2613 52.5824L92.3291 52.6416L91.6126 53.4894ZM93.5574 51.2657C93.2798 51.5942 92.9882 51.7688 92.6826 51.7896C92.3766 51.8057 92.0755 51.6844 91.7791 51.4258C91.4803 51.165 91.3292 50.8739 91.3259 50.5525C91.3247 50.2286 91.4446 49.9241 91.6856 49.6389C92.174 49.061 92.6948 49.0333 93.2481 49.556L92.338 50.6329L92.4849 50.7611C92.731 50.9759 92.9438 51.1063 93.1231 51.1522C93.3025 51.1981 93.4589 51.1422 93.5923 50.9843C93.8419 50.689 93.8497 50.3596 93.6157 49.9962L93.6851 49.9373C93.825 50.1435 93.8915 50.3541 93.8843 50.569C93.8794 50.7815 93.7704 51.0137 93.5574 51.2657ZM92.2659 50.5633L92.5983 50.17L92.4137 50.0089C92.2103 49.8314 92.0614 49.7235 91.967 49.6854C91.8723 49.6426 91.7938 49.6581 91.7314 49.7319C91.6711 49.8032 91.6661 49.8918 91.7164 49.9975C91.7662 50.0986 91.8879 50.2335 92.0813 50.4022L92.2659 50.5633ZM94.6736 49.9449L93.9993 49.3565L94.038 49.3106C94.3124 49.4351 94.5409 49.4797 94.7235 49.4444C94.9061 49.4091 95.0684 49.3074 95.2104 49.1394C95.4298 48.8797 95.458 48.6786 95.2947 48.5362C95.2244 48.4748 95.1448 48.4606 95.0558 48.4936C94.9166 48.5446 94.7664 48.6347 94.605 48.7637C94.4135 48.8974 94.2305 48.9899 94.0562 49.0412C93.8475 49.1024 93.6451 49.0474 93.4493 48.8765C93.2534 48.7055 93.1493 48.5085 93.137 48.2855C93.1223 48.0603 93.201 47.8459 93.3731 47.6422C93.4785 47.5174 93.6161 47.4141 93.7857 47.3321C93.8467 47.3013 93.8879 47.2731 93.9094 47.2476C93.9309 47.2222 93.9404 47.1929 93.9379 47.1597C93.9354 47.1266 93.921 47.0764 93.8948 47.0093L93.9303 46.9673L94.5067 47.4703L94.468 47.5161C94.0318 47.3611 93.6986 47.4197 93.4683 47.6921C93.3672 47.8118 93.3132 47.9195 93.3065 48.0153C93.2972 48.109 93.3239 48.1832 93.3867 48.238C93.4244 48.2708 93.462 48.2882 93.4997 48.2901C93.5348 48.2898 93.5617 48.289 93.5804 48.2876C93.599 48.2862 93.6243 48.2795 93.6563 48.2675C93.6857 48.2534 93.7106 48.242 93.731 48.2333C93.749 48.2224 93.7759 48.206 93.8117 48.1842C93.8498 48.1599 93.8765 48.1412 93.8919 48.1281C94.0809 47.9923 94.224 47.9004 94.3212 47.8525C94.4159 47.8024 94.5149 47.7627 94.6182 47.7334C94.8319 47.6767 95.0456 47.7415 95.259 47.9278C95.47 48.1119 95.577 48.3158 95.5799 48.5395C95.5803 48.7611 95.4869 48.9826 95.2997 49.2041C95.1663 49.3619 95.0008 49.4829 94.8032 49.567C94.7573 49.58 94.7268 49.5954 94.7117 49.6133C94.6644 49.6693 94.6646 49.7646 94.7123 49.8991L94.6736 49.9449Z" fill="url(#paint9_diamond)"/>
</g>
<defs>
<filter id="filter0_d" x="0" y="0.977844" width="130.56" height="98.7199" filterUnits="userSpaceOnUse" color-interpolation-filters="sRGB">
<feFlood flood-opacity="0" result="BackgroundImageFix"/>
<feColorMatrix in="SourceAlpha" type="matrix" values="0 0 0 0 0 0 0 0 0 0 0 0 0 0 0 0 0 0 127 0" result="hardAlpha"/>
<feOffset/>
<feGaussianBlur stdDeviation="7.5"/>
<feComposite in2="hardAlpha" operator="out"/>
<feColorMatrix type="matrix" values="0 0 0 0 0 0 0 0 0 0 0 0 0 0 0 0 0 0 0.25 0"/>
<feBlend mode="normal" in2="BackgroundImageFix" result="effect1_dropShadow"/>
<feBlend mode="normal" in="SourceGraphic" in2="effect1_dropShadow" result="shape"/>
</filter>
<filter id="filter1_d" x="15" y="11.9778" width="108.56" height="76.7199" filterUnits="userSpaceOnUse" color-interpolation-filters="sRGB">
<feFlood flood-opacity="0" result="BackgroundImageFix"/>
<feColorMatrix in="SourceAlpha" type="matrix" values="0 0 0 0 0 0 0 0 0 0 0 0 0 0 0 0 0 0 127 0" result="hardAlpha"/>
<feOffset dx="4"/>
<feGaussianBlur stdDeviation="2"/>
<feComposite in2="hardAlpha" operator="out"/>
<feColorMatrix type="matrix" values="0 0 0 0 0 0 0 0 0 0 0 0 0 0 0 0 0 0 0.25 0"/>
<feBlend mode="normal" in2="BackgroundImageFix" result="effect1_dropShadow"/>
<feBlend mode="normal" in="SourceGraphic" in2="effect1_dropShadow" result="shape"/>
</filter>
<filter id="filter2_d" x="13.5496" y="21.0163" width="52.1956" height="40.4108" filterUnits="userSpaceOnUse" color-interpolation-filters="sRGB">
<feFlood flood-opacity="0" result="BackgroundImageFix"/>
<feColorMatrix in="SourceAlpha" type="matrix" values="0 0 0 0 0 0 0 0 0 0 0 0 0 0 0 0 0 0 127 0" result="hardAlpha"/>
<feOffset dy="4"/>
<feGaussianBlur stdDeviation="2"/>
<feComposite in2="hardAlpha" operator="out"/>
<feColorMatrix type="matrix" values="0 0 0 0 0.368627 0 0 0 0 0.988235 0 0 0 0 0.909804 0 0 0 0.25 0"/>
<feBlend mode="normal" in2="BackgroundImageFix" result="effect1_dropShadow"/>
<feBlend mode="normal" in="SourceGraphic" in2="effect1_dropShadow" result="shape"/>
</filter>
<filter id="filter3_d" x="64.5405" y="21.0434" width="51.9337" height="40.7359" filterUnits="userSpaceOnUse" color-interpolation-filters="sRGB">
<feFlood flood-opacity="0" result="BackgroundImageFix"/>
<feColorMatrix in="SourceAlpha" type="matrix" values="0 0 0 0 0 0 0 0 0 0 0 0 0 0 0 0 0 0 127 0" result="hardAlpha"/>
<feOffset dy="4"/>
<feGaussianBlur stdDeviation="2"/>
<feComposite in2="hardAlpha" operator="out"/>
<feColorMatrix type="matrix" values="0 0 0 0 0.368627 0 0 0 0 0.988235 0 0 0 0 0.909804 0 0 0 0.25 0"/>
<feBlend mode="normal" in2="BackgroundImageFix" result="effect1_dropShadow"/>
<feBlend mode="normal" in="SourceGraphic" in2="effect1_dropShadow" result="shape"/>
</filter>
<filter id="filter4_d" x="47.144" y="33.056" width="32.368" height="41.944" filterUnits="userSpaceOnUse" color-interpolation-filters="sRGB">
<feFlood flood-opacity="0" result="BackgroundImageFix"/>
<feColorMatrix in="SourceAlpha" type="matrix" values="0 0 0 0 0 0 0 0 0 0 0 0 0 0 0 0 0 0 127 0" result="hardAlpha"/>
<feOffset dx="6" dy="17"/>
<feGaussianBlur stdDeviation="4"/>
<feComposite in2="hardAlpha" operator="out"/>
<feColorMatrix type="matrix" values="0 0 0 0 0 0 0 0 0 0 0 0 0 0 0 0 0 0 0.25 0"/>
<feBlend mode="normal" in2="BackgroundImageFix" result="effect1_dropShadow"/>
<feBlend mode="normal" in="SourceGraphic" in2="effect1_dropShadow" result="shape"/>
</filter>
<filter id="filter5_d" x="50.9839" y="43.936" width="30.064" height="42.304" filterUnits="userSpaceOnUse" color-interpolation-filters="sRGB">
<feFlood flood-opacity="0" result="BackgroundImageFix"/>
<feColorMatrix in="SourceAlpha" type="matrix" values="0 0 0 0 0 0 0 0 0 0 0 0 0 0 0 0 0 0 127 0" result="hardAlpha"/>
<feOffset dx="6" dy="17"/>
<feGaussianBlur stdDeviation="4"/>
<feComposite in2="hardAlpha" operator="out"/>
<feColorMatrix type="matrix" values="0 0 0 0 0 0 0 0 0 0 0 0 0 0 0 0 0 0 0.25 0"/>
<feBlend mode="normal" in2="BackgroundImageFix" result="effect1_dropShadow"/>
<feBlend mode="normal" in="SourceGraphic" in2="effect1_dropShadow" result="shape"/>
</filter>
<linearGradient id="paint0_linear" x1="34.0722" y1="-98" x2="56.7521" y2="50.7998" gradientUnits="userSpaceOnUse">
<stop stop-color="#52E5E7" stop-opacity="0.53"/>
<stop offset="0.0520833" stop-color="#3E9FD8" stop-opacity="0.6"/>
<stop offset="1" stop-color="#130CB7" stop-opacity="0"/>
</linearGradient>
<linearGradient id="paint1_linear" x1="297.356" y1="122.246" x2="162.818" y2="114.207" gradientUnits="userSpaceOnUse">
<stop stop-color="#52E5E7" stop-opacity="0.43"/>
<stop offset="0.0520833" stop-color="#3E9FD8" stop-opacity="0.12"/>
<stop offset="1" stop-color="#130CB7" stop-opacity="0"/>
</linearGradient>
<linearGradient id="paint2_linear" x1="47.3237" y1="84.3431" x2="61.3112" y2="64.664" gradientUnits="userSpaceOnUse">
<stop stop-color="#5EFCE8"/>
<stop offset="1" stop-color="#736EFE"/>
</linearGradient>
<linearGradient id="paint3_linear" x1="15.0835" y1="45.9268" x2="33.8626" y2="60.9234" gradientUnits="userSpaceOnUse">
<stop stop-color="#5EFCE8"/>
<stop offset="1" stop-color="#736EFE"/>
</linearGradient>
<linearGradient id="paint4_linear" x1="56.0618" y1="75.9004" x2="70.1592" y2="84.1418" gradientUnits="userSpaceOnUse">
<stop stop-color="#2AFADF"/>
<stop offset="1" stop-color="#4C83FF"/>
</linearGradient>
<linearGradient id="paint5_linear" x1="76.0408" y1="16" x2="66.2768" y2="38.1476" gradientUnits="userSpaceOnUse">
<stop stop-color="#5EFCE8"/>
<stop offset="1" stop-color="#736EFE"/>
</linearGradient>
<linearGradient id="paint6_linear" x1="114.884" y1="47.4297" x2="93.2781" y2="36.6366" gradientUnits="userSpaceOnUse">
<stop stop-color="#5EFCE8"/>
<stop offset="1" stop-color="#736EFE"/>
</linearGradient>
<linearGradient id="paint7_linear" x1="49" y1="25" x2="75.5164" y2="39.0868" gradientUnits="userSpaceOnUse">
<stop stop-color="#FDD819"/>
<stop offset="1" stop-color="#E80505"/>
</linearGradient>
<linearGradient id="paint8_linear" x1="52" y1="36" x2="77.2687" y2="49.0419" gradientUnits="userSpaceOnUse">
<stop stop-color="#FDD819"/>
<stop offset="1" stop-color="#E80505"/>
</linearGradient>
<radialGradient id="paint9_diamond" cx="0" cy="0" r="1" gradientUnits="userSpaceOnUse" gradientTransform="translate(84.0236 58.9323) rotate(-43.0839) scale(23.2339 5.40564)">
<stop stop-color="#FDD819"/>
<stop offset="1" stop-color="#E80505"/>
</radialGradient>
</defs>
</svg>
