<svg width="3745" height="179" fill="none" xmlns="http://www.w3.org/2000/svg">
  <path d="M107.236 119.857C70.116 113.618 35.058 75.527 0 59.764V0h3745v170.098l-18.56-18.717c-16.5-19.046-53.62-56.81-88.68-85.05-35.05-28.568-70.11-47.285-107.23-53.853-35.06-6.239-70.12 0-107.24 15.762-35.05 15.762-70.11 41.047-107.23 50.57-35.06 9.523-70.12 3.284-105.18-6.24-37.12-9.522-72.17-22-107.23-31.523-37.12-9.523-72.18-15.762-107.24 2.955-37.12 19.046-72.18 63.048-107.23 78.81-35.06 15.762-72.18 3.284-107.24-18.717-35.06-22.001-72.18-53.525-107.23-56.81-35.06-3.283-72.18 22.002-107.24 19.047-35.06-3.284-70.12-34.808-107.24-41.047-35.05-6.24-70.11 12.478-107.23 22-35.06 9.524-70.12 9.524-105.18 28.241-37.12 19.046-72.17 56.809-107.23 53.854-37.12-3.284-72.18-47.286-107.24-50.57-37.12-3.284-72.17 34.808-107.23 44.002-35.06 9.523-72.18-9.194-107.24-12.478-35.06-3.284-72.18 9.523-107.23 15.762-35.06 6.239-72.18 6.239-107.24-6.239-35.06-12.807-70.11-37.763-107.23-31.524-35.06 6.239-70.12 44.002-107.24 56.808-35.06 12.479-70.12 0-107.24-3.283-35.05-3.284-70.11 3.283-105.17-6.239-37.12-9.523-72.18-34.808-107.24-41.047-37.12-6.24-72.173 6.239-107.231 0-35.058-6.24-72.178-31.524-107.236-31.524-35.057 0-72.178 25.285-107.235 41.047-35.058 15.762-72.178 22.001-107.236 25.285-35.058 2.955-70.116 2.955-107.236 12.478-35.058 9.523-70.115 28.24-107.236 34.807-35.057 6.24-70.115 0-107.235-19.045-35.058-19.046-70.116-50.57-105.174-53.525-37.12-3.284-72.177 22.001-107.235 15.762z" fill="url(#Vector__paint0_linear)"/>
  <defs>
    <linearGradient id="Vector__paint0_linear" x1="0" y1="0" x2="17.072" y2="357.184" gradientUnits="userSpaceOnUse">
      <stop stop-color="#97ABFF"/>
      <stop offset="1" stop-color="#123597"/>
    </linearGradient>
  </defs>
</svg>
